<svg version="1.1" viewBox="0.0 0.0 496.36482939632543 151.09186351706037" fill="none" stroke="none" stroke-linecap="square" stroke-miterlimit="10" xmlns:xlink="http://www.w3.org/1999/xlink" xmlns="http://www.w3.org/2000/svg"><clipPath id="p.0"><path d="m0 0l496.36484 0l0 151.09186l-496.36484 0l0 -151.09186z" clip-rule="nonzero"/></clipPath><g clip-path="url(#p.0)"><path fill="#000000" fill-opacity="0.0" d="m0 0l496.36484 0l0 151.09186l-496.36484 0z" fill-rule="evenodd"/><path fill="#3d85c6" d="m453.705 22.532808l7.113739 -3.641262l2.7287598 -9.492596l2.7287903 9.492596l7.113739 3.641262l-7.113739 3.641262l-2.7287903 9.492598l-2.7287598 -9.492598z" fill-rule="evenodd"/><path fill="#a2c4c9" d="m32.165653 36.27522l4.9833145 -2.0082855l1.6151085 -6.196438l1.6151123 6.196438l4.9833145 2.0082855l-4.9833145 2.0082893l-1.6151123 6.196434l-1.6151085 -6.196434z" fill-rule="evenodd"/><path fill="#6d9eeb" d="m117.00817 17.603304l4.9833145 -2.0082884l1.6151123 -6.196437l1.6151123 6.196437l4.983307 2.0082884l-4.983307 2.0082874l-1.6151123 6.196436l-1.6151123 -6.196436z" fill-rule="evenodd"/><path fill="#a4c2f4" d="m167.17877 43.884144l4.983322 -2.0082893l1.6151123 -6.196434l1.615097 6.196434l4.983322 2.0082893l-4.983322 2.0082855l-1.615097 6.196438l-1.6151123 -6.196438z" fill-rule="evenodd"/><path fill="#9fc5e8" d="m245.11841 121.6138l4.983322 -2.0082855l1.615097 -6.196434l1.6151123 6.196434l4.983307 2.0082855l-4.983307 2.0082855l-1.6151123 6.1964417l-1.615097 -6.1964417z" fill-rule="evenodd"/><path fill="#6fa8dc" d="m351.57248 121.6138l4.983307 -2.0082855l1.6151123 -6.196434l1.6151123 6.196434l4.983307 2.0082855l-4.983307 2.0082855l-1.6151123 6.1964417l-1.6151123 -6.1964417z" fill-rule="evenodd"/><path fill="#a4c2f4" d="m364.76932 55.70304l4.9833374 -2.0082893l1.6150818 -6.196434l1.6151123 6.196434l4.9833374 2.0082893l-4.9833374 2.0082855l-1.6151123 6.196438l-1.6150818 -6.196438z" fill-rule="evenodd"/><path fill="#000000" fill-opacity="0.0" d="m50.868767 34.892387l58.992126 -14.614172" fill-rule="evenodd"/><path stroke="#d9d2e9" stroke-width="1.0" stroke-linejoin="round" stroke-linecap="butt" d="m50.868767 34.892387l58.992126 -14.614172" fill-rule="evenodd"/><path fill="#000000" fill-opacity="0.0" d="m134.20079 21.041994l31.496063 17.637796" fill-rule="evenodd"/><path stroke="#d9d2e9" stroke-width="1.0" stroke-linejoin="round" stroke-linecap="butt" d="m134.20079 21.041994l31.496063 17.637796" fill-rule="evenodd"/><path fill="#000000" fill-opacity="0.0" d="m183.36351 46.986877l42.645676 16.409447" fill-rule="evenodd"/><path stroke="#d9d2e9" stroke-width="1.0" stroke-linejoin="round" stroke-linecap="butt" d="m183.36351 46.986877l42.645676 16.409447" fill-rule="evenodd"/><path fill="#000000" fill-opacity="0.0" d="m242.70473 78.40945l6.897629 32.787407" fill-rule="evenodd"/><path stroke="#d9d2e9" stroke-width="1.0" stroke-linejoin="round" stroke-linecap="butt" d="m242.70473 78.40945l6.897629 32.787407" fill-rule="evenodd"/><path fill="#000000" fill-opacity="0.0" d="m344.66272 121.249344l-79.811005 0.15747833" fill-rule="evenodd"/><path stroke="#d9d2e9" stroke-width="1.0" stroke-linejoin="round" stroke-linecap="butt" d="m344.66272 121.249344l-79.811005 0.15747833" fill-rule="evenodd"/><path fill="#000000" fill-opacity="0.0" d="m360.23752 109.02887l9.606323 -41.700783" fill-rule="evenodd"/><path stroke="#d9d2e9" stroke-width="1.0" stroke-linejoin="round" stroke-linecap="butt" d="m360.23752 109.02887l9.606323 -41.700783" fill-rule="evenodd"/><path fill="#8e7cc3" d="m230.58398 66.46719l5.223068 -3.1142998l2.4934692 -6.5234985l2.4934692 6.5234985l5.223068 3.1142998l-5.223068 3.114296l-2.4934692 6.5234985l-2.4934692 -6.5234985z" fill-rule="evenodd"/><path fill="#000000" fill-opacity="0.0" d="m251.26378 66.20735l109.03938 -10.519688" fill-rule="evenodd"/><path stroke="#d9d2e9" stroke-width="1.0" stroke-linejoin="round" stroke-linecap="butt" d="m251.26378 66.20735l109.03938 -10.519688" fill-rule="evenodd"/></g></svg>