<svg version="1.1" viewBox="0.0 0.0 100.0 100.0" fill="none" stroke="none" stroke-linecap="square" stroke-miterlimit="10" xmlns:xlink="http://www.w3.org/1999/xlink" xmlns="http://www.w3.org/2000/svg"><clipPath id="p.0"><path d="m0 0l100.0 0l0 100.0l-100.0 0l0 -100.0z" clip-rule="nonzero"/></clipPath><g clip-path="url(#p.0)"><path fill="#000000" fill-opacity="0.0" d="m0 0l100.0 0l0 100.0l-100.0 0z" fill-rule="evenodd"/><defs><linearGradient id="p.1" gradientUnits="userSpaceOnUse" gradientTransform="matrix(10.000013428558999 0.0 0.0 10.000013428558999 0.0 0.0)" spreadMethod="pad" x1="1.8380586066373263" y1="-0.08063390922407274" x2="1.8380224661838893" y2="9.919379519269619"><stop offset="0.0" stop-color="#4d29aa"/><stop offset="1.0" stop-color="#1e123d"/></linearGradient></defs><path fill="url(#p.1)" d="m18.380611 49.19393l27.146091 -13.862122l10.412964 -36.13788l10.412964 36.13788l27.146088 13.862122l-27.146088 13.862122l-10.412964 36.13788l-10.412964 -36.13788z" fill-rule="evenodd"/><path fill="#6d9eeb" d="m6.483046 56.934814l19.029366 -7.6438255l6.167486 -23.58452l6.1674843 23.58452l19.029366 7.6438255l-19.029366 7.6438293l-6.1674843 23.584518l-6.167486 -23.584518z" fill-rule="evenodd"/><path fill="#a2c4c9" d="m56.856197 22.92122l12.407444 -7.6687l5.9232635 -16.063583l5.923271 16.063583l12.40744 7.6687l-12.40744 7.6686993l-5.923271 16.063583l-5.9232635 -16.063583z" fill-rule="evenodd"/></g></svg>